<?xml version="1.0" encoding="utf-8"?>
<!-- Generator: Adobe Illustrator 22.0.1, SVG Export Plug-In . SVG Version: 6.00 Build 0)  -->
<svg color="white" role="presentation" viewBox="0 0 341 100" xmlns="http://www.w3.org/2000/svg" class="sc-djWRfJ fmOEHf"><path fill="#fff" d="M340.73,63.16c0-19.68-14-37.12-35.53-37.12C283,26,267.82,42.21,267.82,63c0,21.09,15.27,37,38.24,37,14.27,0,25.11-6.33,31.38-15.89L326.88,78.2c-3.55,5.77-10.69,10.27-20.53,10.27-13.29,0-23.4-7.17-25.84-19.83H340.3A35.83,35.83,0,0,0,340.73,63.16ZM280.51,58c2-12.23,11.28-20.39,24.69-20.39,10.7,0,20.83,6.47,23,20.39Z"></path><rect fill="#fff" height="97.92" width="12.67" x="248.81"></rect><path fill="#fff" d="M224.68,40.11c-5.75-8.55-14.92-13.89-27.17-13.89a36.45,36.45,0,0,0-36.36,36.89A36.45,36.45,0,0,0,197.51,100c12.23,0,21.42-5.33,27.17-13.89V98.17l.09.07,12.42-.07V0H224.68ZM199.09,88.22c-14.37,0-25.44-10.8-25.44-25.11S184.72,38,199.09,38c14.52,0,25.59,10.79,25.59,25.1S213.61,88.22,199.09,88.22Z"></path><path fill="#fff" d="M120.84,26a36.9,36.9,0,0,0-31,16.27A35.61,35.61,0,0,0,87.23,47v.05a28.37,28.37,0,0,0-2.67,8.18c-.12,1-.27,2.28-.54,4.19-.21,1.53-.32,3.08-.42,4.62-.79,12.78-10.82,22.52-24,22.94A24.35,24.35,0,0,1,34,63.13,24.26,24.26,0,0,1,46.23,40.9H28.64a36,36,0,0,0-6.9,22.62C22.4,84,39.39,99.43,59.91,98.78,79,98.17,94.18,84,95.72,65.53a26.1,26.1,0,0,0,.34-3.05A24.34,24.34,0,0,1,120.82,37.8c14.07,0,24.91,10.68,24.91,24.68s-10.84,24.67-24.91,24.67A24.32,24.32,0,0,1,97.51,71.07a62.11,62.11,0,0,1-3.14,9.86,36.92,36.92,0,0,1-2.48,4.48,37.1,37.1,0,0,0,29,13.55C141.37,99,158,83,158,62.5S141.37,26,120.84,26Z"></path><path fill="#fff" d="M82.14,53.15a43.65,43.65,0,0,1,3.21-8.65c1.65-2.9,2.92-4.85,2.92-4.85-7.1-8.43-16.34-13.2-30.71-13.58H.27V37.82c24.59-.07,57.34-.13,57.68-.14C69.12,37.33,78.47,43.64,82.14,53.15Z"></path></svg>